<svg width="25" height="21" viewBox="0 0 25 21" fill="none" xmlns="http://www.w3.org/2000/svg">
<path d="M17.2283 5.9941L12.9301 10.2196C12.4664 9.99621 11.9388 9.94396 11.4403 10.072C10.9418 10.2001 10.5047 10.5002 10.2061 10.9194C9.90757 11.3386 9.76679 11.8498 9.80867 12.3628C9.85056 12.8757 10.0724 13.3573 10.435 13.7225C10.7977 14.0877 11.2777 14.313 11.7903 14.3585C12.3029 14.404 12.8152 14.2668 13.2364 13.9712C13.6577 13.6756 13.961 13.2406 14.0925 12.7431C14.2241 12.2455 14.1756 11.7175 13.9555 11.2523L18.261 7.02683L17.2283 5.9941Z" fill="#003952"/>
<path d="M12.0065 0.125008C9.71754 0.122385 7.47566 0.774853 5.54561 2.00535C3.61556 3.23585 2.07796 4.99298 1.1144 7.06922C0.150845 9.14546 -0.198422 11.4541 0.107852 13.7224C0.414127 15.9908 1.36315 18.1241 2.84284 19.8705L3.06102 20.125H20.9519L21.1701 19.8705C22.6498 18.1241 23.5988 15.9908 23.9051 13.7224C24.2114 11.4541 23.8621 9.14546 22.8985 7.06922C21.935 4.99298 20.3974 3.23585 18.4673 2.00535C16.5373 0.774853 14.2954 0.122385 12.0065 0.125008ZM20.2537 18.6705H3.7592C2.45424 17.0375 1.66665 15.0521 1.49738 12.9686H4.00647V11.5141H1.49738C1.61918 9.20481 2.50135 7.00064 4.00647 5.24501L5.78829 7.02682L6.81374 6.00137L5.04647 4.21228C6.77976 2.68031 8.97121 1.76486 11.2792 1.60864V4.1541H12.7337V1.61592C15.2832 1.8008 17.6782 2.90728 19.4715 4.72873C21.2649 6.55019 22.334 8.96209 22.4792 11.5141H19.9483V12.9686H22.5156C22.3463 15.0521 21.5587 17.0375 20.2537 18.6705Z" fill="#003952"/>
</svg>
